<?xml version="1.0" standalone="no"?>
<!DOCTYPE svg PUBLIC "-//W3C//DTD SVG 20010904//EN"
 "http://www.w3.org/TR/2001/REC-SVG-20010904/DTD/svg10.dtd">
<svg version="1.0" xmlns="http://www.w3.org/2000/svg"
 width="1024.000000pt" height="1024.000000pt" viewBox="0 0 1024.000000 1024.000000"
 preserveAspectRatio="xMidYMid meet">

<g transform="translate(0.000000,1024.000000) scale(0.100000,-0.100000)"
fill="#000000" stroke="none">
<path d="M5025 9679 c-83 -20 -163 -90 -195 -169 -20 -48 -15 -151 10 -206 25
-57 70 -116 104 -134 l26 -13 0 -297 c0 -163 -3 -331 -6 -373 -7 -74 -8 -76
-36 -83 -17 -3 -100 -35 -186 -70 -87 -35 -159 -64 -162 -64 -10 0 -2 684 9
688 28 9 61 47 90 106 31 60 33 71 29 133 -11 158 -121 263 -273 263 -76 0
-167 -48 -211 -113 -88 -127 -58 -291 71 -387 l46 -34 -2 -383 -2 -382 -56
-25 c-31 -13 -78 -33 -106 -44 -27 -11 -102 -45 -165 -76 -63 -31 -115 -56
-116 -56 -1 0 -4 35 -6 78 l-4 77 44 55 c58 70 72 106 72 177 -1 99 -63 198
-149 236 -53 23 -153 27 -202 7 -138 -55 -203 -219 -140 -352 21 -43 70 -96
114 -123 13 -8 17 -32 18 -134 l2 -124 -27 -14 c-15 -8 -73 -34 -129 -57 -124
-53 -357 -158 -411 -186 -22 -11 -40 -19 -41 -18 -2 2 -5 209 -7 460 l-5 458
42 24 c54 32 112 96 139 155 16 35 21 66 21 131 0 111 -33 188 -112 260 -170
156 -444 104 -539 -102 -25 -55 -29 -75 -29 -153 0 -79 4 -97 29 -149 36 -73
95 -131 164 -163 l53 -25 -3 -403 c-2 -222 -6 -406 -9 -410 -4 -3 -24 3 -45
14 -56 29 -197 41 -464 41 l-230 0 0 106 c0 102 1 108 29 143 52 66 65 101 65
171 0 81 -29 147 -83 189 -53 43 -86 53 -163 54 -122 0 -213 -71 -239 -188
-18 -82 0 -150 56 -213 25 -27 58 -55 75 -62 l30 -12 0 -104 c0 -57 -1 -104
-2 -105 -2 0 -84 -6 -183 -13 l-180 -12 -25 30 c-45 57 -81 85 -146 117 -179
88 -391 -3 -465 -201 -27 -70 -23 -182 9 -252 27 -62 104 -144 167 -176 43
-23 63 -27 138 -27 l89 -1 139 -159 c165 -189 196 -218 269 -253 53 -25 63
-26 255 -29 l200 -3 0 -40 c-1 -22 -2 -105 -3 -185 l-2 -145 -92 0 -93 0 -24
36 c-37 53 -102 87 -170 88 -106 1 -181 -46 -232 -146 -44 -86 -3 -235 80
-292 45 -31 118 -48 174 -40 41 6 112 41 139 67 9 9 51 16 121 19 l107 6 0
-169 0 -169 -263 0 -263 0 -37 45 c-99 118 -242 119 -341 3 -98 -114 -62 -278
76 -349 74 -38 187 -20 263 43 l30 24 195 -7 c107 -4 234 -8 283 -8 l87 -1 1
-62 c0 -35 4 -88 9 -118 4 -30 5 -58 1 -62 -3 -4 -228 -9 -498 -10 l-492 -3
-23 48 c-12 27 -46 70 -74 96 -68 63 -137 85 -243 79 -136 -8 -246 -86 -292
-207 -54 -144 16 -347 142 -412 69 -34 163 -51 226 -39 100 18 161 63 253 185
15 20 26 20 531 17 l516 -3 7 -56 c4 -31 14 -85 23 -120 8 -35 13 -66 11 -69
-3 -3 -153 -8 -334 -13 l-329 -8 -42 35 c-83 67 -174 75 -268 24 -204 -111
-116 -422 119 -422 73 0 153 41 181 93 l20 38 363 -3 363 -3 25 -85 c14 -47
43 -137 64 -200 22 -63 40 -121 40 -127 0 -24 -42 -13 -83 22 -78 67 -187 81
-280 36 -109 -53 -159 -217 -103 -337 72 -155 282 -180 397 -46 34 38 35 39
121 45 83 6 87 5 94 -16 3 -12 41 -92 84 -178 l79 -156 -47 -7 c-26 -3 -229
-3 -452 0 -416 7 -561 0 -617 -30 -50 -25 -116 -87 -251 -232 l-132 -142 -44
10 c-127 27 -294 -58 -352 -180 -23 -48 -28 -70 -28 -142 0 -112 33 -189 110
-260 66 -60 133 -84 229 -83 114 0 203 53 282 167 l20 29 184 -2 c101 -1 184
-3 185 -4 1 -1 5 -54 9 -117 l7 -116 -25 -11 c-40 -19 -97 -73 -118 -115 -30
-58 -35 -127 -14 -190 23 -72 57 -113 118 -145 175 -90 383 61 348 253 -14 73
-33 114 -71 152 l-33 33 6 116 c3 63 8 118 12 121 3 3 153 9 333 12 273 5 333
8 364 22 21 9 107 80 193 157 86 78 164 141 173 141 10 0 28 -19 42 -45 l24
-44 -118 -123 c-65 -68 -147 -150 -182 -184 -42 -42 -66 -73 -73 -100 -7 -24
-11 -156 -11 -341 l0 -303 -51 -25 c-72 -37 -134 -98 -166 -164 -25 -49 -28
-67 -28 -151 0 -111 18 -158 90 -238 174 -193 487 -122 571 130 23 71 16 197
-16 258 -32 63 -72 112 -119 145 l-41 28 0 263 0 263 122 128 c67 70 140 147
162 170 22 24 44 43 49 43 5 0 45 -36 90 -79 45 -43 108 -100 140 -126 l57
-46 0 -109 c0 -59 3 -115 6 -124 4 -10 -6 -21 -33 -35 -97 -49 -157 -167 -134
-265 15 -67 74 -151 127 -182 50 -30 124 -40 179 -25 101 27 187 116 201 208
10 68 -19 162 -67 217 -36 41 -39 48 -33 85 4 23 10 41 15 41 5 0 44 -28 87
-62 43 -35 138 -99 210 -143 l131 -80 1 -305 0 -305 -40 -23 c-77 -44 -138
-170 -127 -262 28 -235 308 -323 465 -145 101 115 94 263 -18 376 l-55 56 5
240 c3 133 8 245 12 248 4 4 42 -11 85 -33 84 -43 181 -76 256 -87 l47 -7 0
-310 0 -310 -52 -46 c-68 -62 -98 -126 -98 -212 1 -235 268 -357 433 -197 124
121 121 306 -7 413 l-46 38 0 308 c0 238 3 309 13 312 89 25 226 74 295 106
47 22 86 39 88 38 1 -2 4 -116 5 -255 l4 -251 -48 -42 c-129 -114 -139 -280
-24 -394 140 -138 348 -104 434 72 60 122 19 266 -97 347 l-39 27 5 302 4 301
174 116 c96 64 193 131 215 148 l41 33 10 -27 c16 -43 12 -58 -26 -89 -52 -41
-84 -116 -84 -196 1 -105 49 -184 143 -231 57 -30 163 -24 232 12 121 63 166
213 101 338 -18 34 -83 99 -107 106 -17 6 -19 19 -19 137 l0 131 53 45 c28 25
92 86 141 135 l89 89 26 -33 c14 -19 89 -95 166 -170 l140 -137 3 -252 c2
-138 1 -262 -2 -274 -3 -13 -24 -35 -46 -50 -56 -37 -105 -91 -132 -145 -18
-37 -22 -64 -23 -141 0 -84 3 -102 29 -157 34 -75 95 -134 174 -171 47 -22 71
-27 137 -26 67 0 90 5 139 29 183 88 254 302 161 485 -27 53 -101 125 -151
146 l-34 14 0 314 c0 173 -4 325 -9 338 -5 13 -96 111 -203 218 l-195 194 41
57 c23 32 45 58 49 58 10 1 104 -76 251 -208 65 -58 127 -112 138 -120 15 -11
89 -16 340 -22 176 -5 322 -10 323 -11 2 -2 7 -52 12 -113 l10 -110 -43 -46
c-89 -97 -97 -250 -19 -353 60 -79 200 -110 292 -65 120 58 176 224 116 343
-20 40 -82 105 -110 117 -22 8 -23 13 -23 128 l0 120 173 3 172 3 20 -25 c67
-82 110 -120 167 -145 165 -74 348 -5 430 163 30 60 33 75 33 157 0 83 -3 95
-33 152 -37 67 -87 113 -160 146 -38 17 -66 21 -144 22 l-97 0 -36 35 c-20 19
-79 85 -131 146 -96 114 -166 171 -239 196 -31 10 -152 13 -563 13 -360 0
-521 3 -518 10 2 6 26 50 54 98 27 48 67 125 88 172 l38 85 101 0 c55 0 118
-5 140 -12 22 -6 81 -11 131 -12 87 -1 95 1 174 39 61 29 84 36 88 27 7 -22
66 -94 93 -114 37 -28 125 -34 186 -14 118 39 181 179 143 317 -14 49 -86 115
-137 126 -128 26 -225 -12 -293 -116 -15 -22 -16 -23 -58 -6 -23 10 -42 21
-42 25 0 33 -199 46 -311 20 -31 -7 -64 -10 -73 -7 -15 6 -14 12 5 59 12 29
41 113 65 186 24 74 48 140 52 148 7 12 67 14 367 15 l358 0 20 -30 c11 -19
44 -43 83 -62 55 -27 71 -31 113 -26 113 13 199 95 217 205 13 83 -45 186
-125 221 -89 38 -176 26 -252 -35 l-35 -29 -170 6 c-93 4 -247 7 -342 8 -160
1 -173 2 -168 19 3 9 14 55 26 102 11 47 24 94 29 105 9 21 16 21 472 23 255
1 482 5 505 8 39 6 41 5 59 -36 25 -56 104 -124 171 -149 124 -47 252 -20 353
74 70 66 106 148 106 245 0 65 -4 84 -33 143 -61 123 -168 183 -311 175 -119
-7 -228 -74 -288 -175 l-25 -43 -490 0 c-461 0 -489 1 -484 18 3 9 10 55 16
102 19 147 -7 130 198 130 97 0 217 5 265 10 l89 9 49 -39 c110 -87 259 -61
344 58 27 39 30 52 30 116 0 67 -3 78 -35 124 -88 130 -272 135 -371 11 l-31
-40 -251 6 c-138 3 -252 6 -253 8 -3 2 15 292 19 315 1 10 22 14 73 15 69 0
74 -1 115 -36 97 -83 250 -77 336 14 40 43 61 92 72 171 8 62 8 63 -30 115
-48 65 -91 98 -148 113 -86 23 -175 -6 -246 -79 -41 -43 -59 -48 -137 -35
l-38 7 0 177 0 178 193 4 c186 3 195 4 249 31 33 16 86 57 125 95 72 72 242
265 264 300 11 18 22 21 79 20 80 -1 131 13 191 50 197 125 222 399 52 553
-72 65 -194 98 -290 79 -82 -17 -139 -50 -203 -114 -54 -55 -55 -56 -100 -50
-25 3 -99 9 -165 12 l-120 7 -3 103 c-2 67 1 102 8 102 23 0 99 83 120 132 54
127 -22 303 -145 338 -70 20 -155 9 -211 -26 -130 -80 -151 -265 -44 -386 l40
-46 0 -94 0 -95 -262 -6 c-290 -7 -354 -15 -410 -52 -45 -30 -53 -31 -64 -7
-5 9 -10 197 -12 417 l-3 400 46 24 c57 30 116 96 152 170 24 48 28 68 28 141
-1 103 -22 156 -91 230 -60 64 -95 86 -173 106 -110 28 -236 -10 -328 -99 -67
-64 -88 -123 -88 -242 1 -89 4 -106 28 -152 27 -52 76 -108 134 -153 l32 -25
9 -450 c4 -247 8 -451 7 -453 -1 -1 -87 37 -191 84 -104 47 -240 106 -302 131
-61 25 -115 49 -118 54 -3 5 -5 63 -6 130 l0 122 51 47 c113 104 125 251 31
370 -44 56 -101 80 -189 80 -89 0 -131 -19 -194 -89 -95 -107 -86 -250 22
-356 l41 -39 0 -78 c0 -46 -4 -78 -10 -78 -6 0 -70 28 -143 63 -72 35 -170 80
-217 101 l-85 38 0 388 0 389 35 23 c49 34 97 101 115 163 35 119 -25 253
-137 309 -121 60 -283 11 -353 -108 -72 -123 -40 -282 76 -365 l41 -30 -2
-123 c-6 -448 -10 -543 -22 -540 -7 2 -35 14 -63 26 -58 26 -127 53 -240 93
l-80 29 -3 370 -2 370 45 37 c68 57 97 115 103 203 6 89 -13 147 -67 207 -60
67 -166 98 -256 76z m137 -115 c34 -18 68 -66 79 -112 12 -51 -22 -144 -63
-174 -68 -48 -188 -28 -228 37 -11 18 -23 56 -27 83 -9 81 43 167 112 185 28
7 95 -3 127 -19z m-633 -234 c35 -24 71 -94 71 -136 0 -16 -11 -53 -25 -82
-20 -43 -32 -56 -67 -72 -55 -25 -89 -25 -138 0 -83 42 -114 145 -71 234 40
82 155 110 230 56z m1261 12 c66 -33 113 -136 89 -196 -44 -112 -142 -155
-233 -103 -57 32 -77 72 -77 153 0 75 13 102 71 142 40 27 101 29 150 4z
m-678 -507 c2 -162 1 -317 0 -345 -4 -50 -4 -50 -39 -50 -28 0 -34 3 -29 16 3
9 6 161 6 339 l0 324 23 4 c12 2 25 5 29 6 4 0 9 -132 10 -294z m-2113 186
c74 -48 103 -98 109 -188 4 -61 1 -79 -18 -115 -30 -59 -57 -86 -115 -115 -42
-22 -58 -25 -112 -20 -155 12 -253 151 -210 298 23 79 54 119 117 152 77 40
154 36 229 -12z m4361 18 c75 -34 132 -102 141 -169 3 -20 -1 -26 -24 -30 -22
-4 -33 -17 -56 -65 -54 -116 -134 -154 -253 -123 -32 9 -55 12 -52 7 14 -23
91 -51 157 -57 61 -5 67 -7 39 -13 -43 -9 -128 11 -176 41 -107 65 -133 232
-54 341 58 81 183 111 278 68z m-2871 -469 c-2 -240 -6 -344 -14 -350 -6 -5
-22 -11 -34 -12 l-22 -3 2 315 c1 173 2 329 2 347 1 32 9 39 50 42 17 1 18
-16 16 -339z m1261 -20 c0 -192 -3 -350 -6 -350 -3 0 -19 8 -36 18 l-30 17 7
315 c3 173 9 323 11 333 3 10 15 17 30 17 l24 0 0 -350z m-1930 -62 c47 -32
75 -91 73 -153 -4 -84 -63 -135 -157 -135 -166 0 -213 222 -62 291 56 25 106
24 146 -3z m2695 -21 c69 -69 71 -165 5 -228 -65 -62 -146 -60 -210 6 -33 34
-35 40 -35 106 0 70 0 71 42 110 40 37 46 39 104 39 56 0 64 -3 94 -33z
m-3582 -19 c2 -7 5 -212 6 -455 l2 -442 -30 -15 c-16 -9 -32 -16 -35 -16 -3 0
-6 212 -6 470 l0 470 29 0 c16 0 31 -6 34 -12z m4361 -110 c4 -68 6 -217 5
-333 -2 -115 1 -272 5 -347 8 -124 7 -138 -8 -138 -9 0 -24 8 -34 18 -17 17
-19 47 -25 337 -4 175 -7 378 -7 452 l0 133 29 0 29 0 6 -122z m-2122 -9 c88
-31 404 -158 523 -212 364 -165 935 -416 1180 -519 161 -68 662 -269 845 -339
82 -32 183 -94 218 -134 64 -72 67 -100 67 -600 0 -1221 -112 -1866 -462
-2645 -67 -149 -211 -422 -273 -515 -25 -38 -59 -92 -75 -119 -106 -186 -457
-581 -680 -768 -86 -72 -356 -267 -536 -388 -133 -90 -366 -203 -554 -270 -44
-15 -111 -41 -150 -56 -64 -26 -81 -28 -195 -28 -121 0 -129 2 -250 43 -140
49 -491 220 -639 312 -272 170 -592 420 -774 604 -211 214 -427 494 -593 770
-128 213 -303 598 -401 880 -32 95 -147 548 -167 660 -19 110 -52 427 -66 630
-15 229 -23 1007 -12 1210 8 162 12 185 35 230 14 28 36 60 49 71 30 28 124
75 235 117 202 78 602 247 1008 427 459 203 657 290 880 385 572 245 644 273
697 274 16 1 56 -9 90 -20z m-3225 -48 c71 -33 110 -137 75 -201 -27 -50 -74
-74 -144 -75 -51 0 -61 3 -88 31 -35 34 -53 92 -43 142 10 56 84 117 148 121
6 0 29 -8 52 -18z m6401 -11 c57 -35 82 -128 53 -197 -29 -72 -128 -94 -207
-48 -45 27 -64 62 -64 124 0 109 124 178 218 121z m-4563 -182 c9 -23 23 -143
18 -154 -3 -10 -18 -19 -65 -42 -5 -2 -8 41 -8 96 0 100 3 109 38 111 7 1 15
-5 17 -11z m2653 -96 c3 -99 1 -102 -48 -77 -29 15 -30 18 -30 84 0 92 4 100
43 92 l32 -7 3 -92z m1827 -104 c2 -7 9 -65 15 -128 6 -63 15 -119 21 -126 6
-7 75 -14 200 -19 l190 -7 -3 -37 -3 -36 -160 1 c-88 0 -324 2 -525 4 -340 4
-368 3 -403 -14 -21 -11 -45 -30 -54 -42 -10 -16 -25 -24 -43 -24 -38 0 -90
20 -90 34 0 18 90 101 135 125 38 20 54 21 352 21 l313 0 0 108 c0 59 3 117 6
130 7 24 42 31 49 10z m-6321 -35 c3 -21 6 -77 6 -125 l0 -87 36 -7 c20 -4
167 -5 325 -2 268 5 291 4 331 -14 49 -22 103 -70 124 -110 16 -30 13 -34 -37
-43 -32 -6 -43 -2 -84 29 -25 20 -57 39 -69 42 -12 3 -267 6 -566 7 l-545 2
-3 33 -3 33 201 -2 c135 -1 205 2 213 10 9 9 24 147 26 249 1 15 7 22 20 22
14 0 20 -10 25 -37z m-704 -131 c48 -30 95 -89 109 -138 7 -25 6 -31 -6 -30
-9 1 -22 -20 -35 -54 -54 -143 -134 -183 -291 -146 l-58 14 21 -23 c31 -33 99
-49 178 -42 61 6 65 5 42 -8 -55 -31 -164 -13 -226 38 -51 42 -74 97 -74 178
0 94 36 162 109 206 84 51 154 52 231 5z m7906 -7 c47 -28 75 -62 92 -114 16
-45 15 -49 -5 -47 -11 1 -28 -23 -54 -75 -48 -99 -88 -131 -169 -137 -33 -2
-73 1 -91 7 -32 11 -32 11 -14 -9 10 -11 24 -20 32 -20 7 0 13 -4 13 -9 0 -5
8 -7 19 -4 10 3 22 0 25 -6 15 -24 -61 -11 -106 18 -36 23 -53 44 -78 95 -28
57 -32 73 -26 113 9 70 54 152 101 185 73 52 176 53 261 3z m-6569 -271 c24
-9 43 -20 43 -24 0 -7 -33 -22 -205 -96 -212 -90 -290 -164 -330 -310 -4 -13
-120 -24 -256 -24 l-98 0 -69 83 c-39 45 -93 105 -122 132 -28 28 -65 67 -81
87 l-30 37 16 55 c9 31 17 57 18 58 1 1 227 4 502 8 275 3 516 7 535 8 19 1
54 -5 77 -14z m6121 -22 c2 -9 10 -37 17 -61 l15 -43 -38 -42 c-20 -23 -86
-97 -146 -164 l-108 -122 -169 0 -168 0 -11 43 c-25 101 -84 184 -165 231 -24
15 -106 51 -182 82 -76 31 -142 58 -146 61 -5 3 4 14 20 24 27 18 51 19 553
13 482 -5 525 -7 528 -22z m127 -209 l33 -26 -56 -66 c-110 -126 -237 -253
-280 -278 -42 -25 -50 -26 -233 -28 l-189 -3 0 50 0 50 190 -3 190 -3 113 119
c63 66 131 141 153 167 21 26 40 47 42 47 2 1 18 -11 37 -26z m-7290 -149
l163 -167 186 7 187 8 -3 -49 -3 -48 -190 4 -190 3 -52 35 c-29 19 -116 101
-193 182 l-140 146 28 22 c15 13 31 23 35 23 5 0 82 -75 172 -166z m204 -703
c62 -43 88 -129 58 -187 -56 -107 -178 -109 -235 -3 -29 55 -25 103 14 155 48
62 106 75 163 35z m6782 6 c47 -31 71 -81 66 -138 -5 -61 -36 -103 -91 -124
-55 -21 -103 -9 -140 36 -69 81 -48 181 46 228 55 27 77 26 119 -2z m-6451
-153 l0 -44 -75 0 -74 0 -7 36 c-3 19 -3 39 2 44 9 9 119 18 142 11 7 -2 12
-20 12 -47z m6148 7 c2 -24 0 -47 -5 -52 -12 -11 -101 1 -106 15 -2 6 -2 28 1
49 l4 38 52 -3 51 -3 3 -44z m-6814 -445 c64 -27 96 -113 68 -182 -23 -55
-116 -88 -169 -60 -96 49 -117 151 -46 222 27 27 42 34 74 34 22 0 55 -6 73
-14z m7466 -8 c18 -13 42 -40 53 -61 17 -33 18 -44 8 -77 -14 -47 -67 -95
-114 -104 -111 -21 -190 111 -121 202 48 62 118 78 174 40z m-6779 -92 c11
-12 -4 -85 -19 -91 -9 -3 -123 -3 -254 1 l-238 7 0 33 c0 42 5 43 170 47 294
6 337 7 341 3z m6489 -13 c0 -10 -3 -28 -6 -39 -6 -21 -13 -22 -182 -28 -98
-4 -207 -8 -244 -9 l-68 -3 0 43 0 42 63 4 c34 2 146 4 250 5 172 2 187 1 187
-15z m-7664 -316 c57 -29 71 -45 102 -109 72 -153 -34 -321 -203 -321 -161 0
-268 147 -224 308 13 48 89 126 139 142 51 17 130 8 186 -20z m8504 4 c50 -26
109 -94 126 -144 14 -41 14 -55 4 -95 -36 -131 -106 -194 -219 -195 -135 -1
-230 91 -231 223 0 171 174 286 320 211z m-7286 -179 c3 -5 8 -27 12 -49 l6
-40 -423 -1 c-233 0 -460 2 -504 6 l-80 7 3 30 c2 17 6 32 9 35 4 5 342 12
795 18 97 1 179 -2 182 -6z m6866 -41 l0 -38 -369 -8 c-203 -4 -423 -4 -491 0
-117 7 -121 8 -116 29 3 11 6 26 6 33 0 18 43 19 528 21 l442 2 0 -39z m-122
-408 c31 -19 62 -72 62 -106 0 -77 -64 -137 -148 -137 -88 0 -142 122 -89 201
43 64 113 81 175 42z m-7460 3 c57 -31 80 -123 46 -187 -17 -33 -66 -59 -111
-59 -61 0 -133 73 -133 133 0 42 28 95 59 112 32 18 108 19 139 1z m808 -61
c7 -2 14 -20 16 -39 l4 -36 -338 0 -338 0 0 33 c0 18 5 38 12 45 8 8 92 10
322 6 171 -3 316 -7 322 -9z m6368 -17 c-3 -18 -7 -39 -10 -45 -3 -10 -77 -13
-326 -13 -178 0 -328 4 -335 8 -8 5 -10 17 -4 37 l7 30 300 5 c164 3 316 6
336 8 37 2 37 2 32 -30z m-57 -577 c64 -63 61 -151 -6 -213 -33 -31 -48 -38
-80 -38 -57 0 -106 48 -116 113 -10 63 0 94 40 134 29 29 40 33 83 33 42 0 55
-5 79 -29z m-6297 -13 c55 -43 77 -137 45 -198 -53 -102 -191 -106 -238 -7
-33 69 -13 182 37 209 54 29 115 28 156 -4z m5884 -29 c91 -14 116 -32 116
-82 l0 -34 -142 -5 c-79 -3 -206 -3 -283 1 l-140 6 2 25 c7 65 9 67 75 75 35
3 90 13 123 20 63 15 119 13 249 -6z m-5648 -54 c23 -57 20 -65 -30 -65 -39 0
-44 3 -50 28 -3 15 -8 37 -12 50 -6 20 -3 22 35 22 38 0 43 -3 57 -35z m321
-643 c8 -19 11 -37 8 -41 -4 -3 -258 -8 -565 -11 l-558 -5 -151 -148 -151
-148 -30 18 c-16 9 -30 23 -30 31 0 7 47 62 104 122 116 121 152 155 211 194
l39 27 554 -2 554 -2 15 -35z m5706 23 c20 -9 101 -86 183 -172 l148 -155 -25
-19 c-13 -10 -27 -19 -30 -19 -4 0 -58 51 -120 113 -63 62 -135 127 -161 145
l-47 32 -551 0 -551 0 7 38 c4 20 8 39 9 42 2 3 250 7 553 9 500 3 552 2 585
-14z m-5599 -177 c26 -37 19 -69 -25 -120 -42 -50 -200 -187 -237 -207 -16 -8
-185 -12 -598 -14 -560 -2 -576 -1 -590 17 -29 40 -17 58 128 196 l142 135
560 5 c309 3 571 6 583 8 13 1 28 -7 37 -20z m5671 -134 l145 -146 -15 -27
c-14 -28 -15 -28 -136 -34 -152 -9 -760 -7 -891 2 -94 6 -98 7 -135 42 -21 21
-77 68 -124 105 -162 131 -182 151 -175 179 l6 25 590 0 589 0 146 -146z
m-1317 -44 c42 -32 122 -100 177 -149 92 -82 104 -90 152 -96 28 -4 288 -5
577 -4 l526 4 0 -32 c0 -29 -4 -33 -32 -37 -123 -19 -890 -22 -1021 -4 -43 6
-90 8 -106 5 -25 -5 -35 1 -79 47 -28 30 -48 57 -44 61 4 5 2 5 -4 2 -14 -8
-54 20 -54 37 0 7 -16 21 -35 32 -22 12 -33 24 -30 34 3 9 -10 24 -34 38 -46
29 -95 88 -87 108 3 7 8 14 11 14 4 0 41 -27 83 -60z m-4208 -32 c0 -4 -35
-36 -77 -70 -42 -35 -86 -73 -97 -85 -11 -13 -27 -23 -35 -23 -9 0 -21 -10
-26 -22 -12 -27 -89 -76 -130 -82 -16 -2 -190 -8 -385 -11 l-355 -7 0 -157 0
-156 -29 -3 -28 -4 7 160 7 159 -122 6 c-68 4 -168 7 -222 7 l-99 0 3 38 3 37
140 -3 c77 -2 348 0 602 4 l462 6 98 83 c54 46 125 110 157 144 l60 60 32 -37
c18 -20 33 -40 34 -44z m-1814 -23 c56 -28 111 -100 120 -157 6 -32 4 -36 -21
-42 -17 -4 -31 -18 -40 -40 -39 -92 -104 -133 -222 -138 -84 -3 -93 -10 -40
-31 29 -12 88 -10 170 8 38 8 34 -3 -8 -21 -66 -27 -160 -13 -211 33 -73 66
-96 141 -74 246 14 70 48 112 115 143 69 33 145 32 211 -1z m7865 13 c52 -17
87 -45 113 -91 36 -62 37 -87 3 -106 -17 -10 -34 -31 -42 -53 -16 -46 -58 -98
-99 -120 -39 -22 -112 -23 -171 -3 -25 9 -49 13 -54 10 -12 -7 -46 49 -61 100
-15 51 5 137 45 189 55 72 175 105 266 74z m-5840 -307 c-11 -15 -70 -77 -131
-137 -61 -60 -128 -132 -150 -159 l-39 -51 -2 -267 -1 -267 -29 0 c-22 0 -30
6 -34 23 -6 22 0 544 6 576 2 16 121 143 228 245 35 33 77 75 94 93 l29 32 25
-29 25 -30 -21 -29z m3778 -25 c54 -47 225 -225 236 -247 11 -21 15 -93 18
-318 l4 -291 -33 0 -34 0 0 168 c-1 92 -3 223 -7 291 l-5 124 -127 122 -126
123 25 21 c30 25 29 24 49 7z m1230 -140 c7 -126 4 -138 -34 -134 -19 3 -20
12 -23 140 -2 120 -1 137 13 132 9 -4 15 -1 15 7 0 9 5 6 12 -5 6 -11 14 -74
17 -140z m861 56 c0 -8 -58 -32 -78 -32 -7 0 -12 5 -12 10 0 6 9 10 20 10 11
0 20 5 20 10 0 6 11 10 25 10 14 0 25 -4 25 -8z m-5329 -309 c27 -43 20 -123
-11 -123 -43 0 -50 10 -50 74 0 82 8 110 26 95 8 -6 23 -27 35 -46z m2629 -28
l0 -85 -35 0 c-34 0 -35 1 -35 38 0 20 -3 46 -6 57 -4 14 3 30 22 48 46 46 54
37 54 -58z m-4463 40 c12 -8 31 -31 43 -51 19 -30 22 -44 16 -91 -9 -73 -20
-91 -69 -114 -112 -50 -197 5 -197 128 0 60 16 91 59 120 40 27 115 31 148 8z
m6385 -11 c32 -24 56 -56 63 -87 6 -22 3 -26 -27 -32 -18 -4 -44 -17 -58 -30
-32 -28 -82 -38 -114 -22 -19 11 -22 17 -14 31 13 22 8 26 -19 15 -26 -10 -22
-35 8 -44 11 -4 17 -11 13 -16 -3 -5 -10 -7 -15 -4 -16 10 -10 -11 11 -37 12
-17 30 -25 51 -26 41 -1 51 -12 11 -12 -77 0 -124 56 -126 148 -2 97 52 146
150 138 23 -2 53 -12 66 -22z m-4552 -226 c63 -33 83 -66 88 -142 4 -59 2 -65
-28 -99 -52 -60 -136 -71 -208 -27 -35 21 -72 86 -72 125 0 62 56 137 115 154
46 14 57 13 105 -11z m2690 3 c41 -22 80 -89 80 -139 0 -85 -69 -156 -151
-156 -151 0 -205 204 -76 288 49 31 98 34 147 7z m-2032 -195 l27 -14 -3 -256
-3 -256 -29 0 -30 0 0 270 c0 149 2 270 5 270 4 0 18 -6 33 -14z m1292 -256
l0 -270 -29 0 c-16 0 -30 6 -32 13 -2 6 -4 121 -4 254 0 230 1 243 20 257 45
34 45 31 45 -254z m-2762 81 c46 -24 88 -74 102 -121 5 -18 7 -30 4 -27 -13
13 -31 -20 -37 -67 -10 -71 -48 -130 -100 -155 -52 -25 -83 -26 -161 -6 -33 9
-61 13 -65 10 -10 -10 53 -54 93 -65 21 -6 36 -14 33 -16 -9 -9 -83 15 -118
39 -93 63 -124 199 -69 307 25 48 91 105 138 119 52 14 132 6 180 -18z m4382
3 c76 -32 138 -125 125 -185 -4 -19 -12 -29 -20 -25 -20 7 -35 -15 -35 -54 0
-40 -29 -75 -87 -104 -41 -20 -151 -21 -200 -1 -47 20 -48 19 -29 -10 25 -37
3 -30 -34 11 -43 49 -52 78 -51 153 3 98 34 156 109 203 65 40 144 44 222 12z
m-2256 -386 l-9 -233 -30 0 c-22 0 -30 5 -29 18 0 9 1 140 2 291 l2 275 28 3
c26 3 27 1 36 -59 4 -34 4 -165 0 -295z m-594 -87 c14 -9 38 -42 54 -74 23
-47 27 -64 22 -100 -9 -61 -40 -105 -89 -127 -55 -25 -83 -25 -137 3 -64 31
-90 75 -90 149 0 64 14 100 53 136 47 44 134 50 187 13z m1293 4 c31 -20 65
-82 73 -133 13 -82 -60 -174 -149 -189 -25 -4 -49 1 -81 17 -76 36 -106 109
-86 205 12 59 41 90 105 113 37 14 107 7 138 -13z m-2910 8 c-7 -2 -19 -2 -25
0 -7 3 -2 5 12 5 14 0 19 -2 13 -5z m2266 -281 c91 -67 75 -227 -29 -279 -24
-13 -56 -23 -70 -23 -43 0 -112 42 -132 80 -15 26 -18 50 -16 97 4 71 24 105
78 135 42 23 131 18 169 -10z"/>
<path d="M2970 8696 c-30 -33 -36 -44 -19 -33 30 20 71 66 67 75 -2 4 -23 -15
-48 -42z"/>
<path d="M5008 7696 c-53 -21 -316 -134 -363 -156 -76 -36 -320 -148 -385
-175 -165 -71 -243 -106 -475 -215 -91 -43 -509 -220 -520 -220 -3 0 -57 -22
-118 -49 -62 -26 -164 -67 -227 -91 -206 -75 -205 -74 -215 -315 -7 -186 9
-841 25 -1055 33 -406 139 -828 306 -1213 230 -530 619 -1060 1009 -1375 151
-122 174 -139 260 -192 299 -184 602 -308 770 -317 85 -5 98 -3 205 33 119 39
375 163 515 249 352 215 694 549 943 922 149 223 189 290 277 464 183 362 287
669 369 1094 68 353 76 461 76 1100 0 449 -2 492 -18 511 -27 33 -56 48 -217
109 -259 97 -302 115 -622 252 -172 73 -315 133 -317 133 -3 0 -94 41 -203 91
-218 101 -479 218 -762 342 -196 86 -248 98 -313 73z m217 -135 c72 -32 216
-98 320 -146 105 -48 237 -106 295 -130 58 -24 182 -78 275 -120 94 -42 287
-128 430 -190 143 -62 305 -133 360 -157 55 -24 179 -73 277 -108 l176 -63 8
-116 c9 -142 -2 -756 -16 -941 -32 -403 -123 -817 -262 -1190 -54 -144 -192
-439 -254 -542 -150 -250 -288 -443 -426 -598 -96 -108 -324 -327 -413 -396
-154 -120 -454 -292 -635 -362 -105 -41 -237 -82 -265 -82 -12 0 -79 17 -147
39 -244 76 -523 217 -718 363 -217 162 -508 454 -640 642 -36 52 -95 136 -131
187 -339 482 -574 1140 -629 1759 -19 224 -32 705 -25 967 l7 262 87 37 c47
20 120 49 161 65 41 15 125 49 185 74 61 26 146 60 190 76 76 29 216 90 495
219 69 31 154 70 190 85 71 30 112 49 295 132 66 30 197 88 292 129 95 40 212
94 260 118 48 25 97 45 108 45 11 0 79 -26 150 -58z"/>
<path d="M3806 6439 c-109 -27 -251 -138 -303 -236 -34 -63 -63 -192 -63 -277
0 -122 55 -251 144 -340 128 -128 321 -178 487 -126 81 25 142 63 211 133 163
166 196 423 78 606 -47 74 -158 174 -235 212 -61 30 -76 33 -173 35 -59 2
-124 -1 -146 -7z m102 -165 c67 -33 97 -80 96 -149 -1 -28 -8 -64 -17 -82 -60
-115 -236 -136 -326 -39 -28 30 -39 106 -22 158 22 67 118 136 192 138 14 0
48 -12 77 -26z m-125 -435 c36 -39 36 -86 1 -128 -34 -41 -75 -42 -115 -2 -42
43 -40 92 6 138 40 40 64 39 108 -8z m389 12 c27 -24 33 -36 33 -69 0 -47 -23
-78 -73 -99 -30 -12 -37 -12 -60 3 -72 45 -82 106 -28 160 44 44 83 45 128 5z"/>
<path d="M6115 6436 c-125 -41 -248 -143 -298 -246 -150 -312 5 -665 322 -736
84 -19 190 -15 259 10 53 19 135 73 186 123 116 113 179 305 147 453 -32 151
-151 298 -297 367 -73 35 -87 38 -179 40 -63 2 -115 -2 -140 -11z m77 -146
c46 -13 93 -52 115 -94 20 -38 19 -115 0 -153 -65 -123 -261 -140 -336 -29
-20 31 -23 45 -19 100 3 54 9 72 34 103 33 42 104 83 144 83 14 0 42 -5 62
-10z m298 -457 c41 -46 40 -85 -4 -129 -46 -46 -93 -47 -130 -3 -46 54 -27
137 37 164 40 16 61 9 97 -32z m-411 21 c29 -21 54 -79 45 -107 -20 -67 -90
-88 -137 -41 -48 47 -47 94 1 139 31 29 58 32 91 9z"/>
<path d="M4732 5870 c-28 -12 -45 -54 -36 -94 11 -53 67 -149 114 -197 68 -68
145 -102 245 -107 178 -9 323 75 404 237 50 99 35 161 -38 161 -47 0 -57 -11
-72 -78 -25 -117 -120 -200 -243 -209 -54 -5 -72 -2 -117 20 -91 43 -132 92
-149 174 -12 56 -46 104 -72 102 -7 0 -23 -4 -36 -9z"/>
<path d="M4985 5209 c-350 -65 -601 -345 -624 -694 l-6 -100 -39 -10 c-43 -10
-100 -60 -119 -103 -9 -20 -11 -122 -9 -377 4 -409 9 -447 93 -612 107 -211
239 -324 479 -409 172 -60 394 -74 560 -34 109 26 230 75 298 121 26 18 85 71
132 118 100 102 155 192 202 336 l33 100 0 365 c0 328 -2 368 -18 397 -20 37
-71 79 -108 88 -25 6 -26 9 -33 108 -6 94 -28 202 -55 270 -37 92 -142 217
-246 292 -113 81 -208 119 -350 141 -101 15 -119 16 -190 3z m265 -115 c176
-52 334 -183 410 -340 32 -66 63 -219 58 -286 l-3 -42 -50 3 c-28 1 -70 -2
-95 -8 -24 -5 -45 -9 -46 -8 -1 1 -9 41 -17 88 -19 110 -53 181 -119 247 -170
171 -439 166 -605 -11 -67 -72 -99 -149 -110 -261 l-6 -68 -36 6 c-20 3 -66 6
-103 6 l-68 0 0 69 c0 85 37 218 87 313 71 136 249 266 413 303 78 18 210 13
290 -11z m-14 -357 c103 -53 163 -144 172 -259 l5 -68 -109 4 c-60 2 -205 4
-321 5 l-213 1 0 34 c0 51 36 158 69 203 32 44 99 88 158 103 69 17 182 6 239
-23z m620 -430 c18 -18 24 -115 24 -407 0 -360 -7 -416 -68 -537 -93 -182
-223 -291 -442 -368 -103 -37 -107 -37 -256 -37 -166 0 -255 17 -385 71 -83
35 -209 122 -255 175 -62 72 -122 178 -156 276 l-33 95 0 345 c0 236 4 353 11
370 l12 25 771 -1 c424 0 774 -3 777 -7z"/>
<path d="M5006 3998 c-48 -13 -112 -77 -126 -127 -25 -89 7 -210 64 -240 l23
-13 -23 -81 c-30 -100 -30 -137 -2 -172 l22 -28 129 6 c113 4 132 7 150 25
l20 21 -23 111 -23 111 30 32 c47 49 65 93 65 158 0 152 -138 241 -306 197z
m163 -130 c53 -54 35 -145 -34 -174 -89 -37 -155 9 -155 109 0 64 37 95 116
96 34 1 47 -5 73 -31z"/>
<path d="M9488 5155 c-3 -38 -5 -72 -3 -73 10 -10 22 70 16 104 -7 36 -8 34
-13 -31z"/>
<path d="M9395 5000 c-52 -31 -51 -38 4 -19 17 6 36 20 42 30 12 23 14 24 -46
-11z"/>
<path d="M1786 2102 c-3 -5 4 -24 16 -43 12 -19 23 -29 25 -22 4 10 10 9 26
-2 35 -24 69 -19 92 15 11 16 23 30 28 30 4 0 7 5 7 12 0 6 -13 0 -28 -15 -15
-15 -38 -27 -49 -27 -36 0 -75 19 -80 40 -5 20 -27 27 -37 12z"/>
<path d="M3636 9340 c-103 -31 -186 -150 -186 -267 0 -96 15 -130 89 -203 71
-71 112 -90 193 -90 162 0 281 119 281 281 0 120 -78 238 -180 273 -50 17
-149 20 -197 6z m164 -102 c155 -79 140 -305 -23 -349 -94 -25 -214 52 -224
144 -8 70 4 114 45 159 64 71 125 84 202 46z"/>
<path d="M3681 9133 c-47 -43 -49 -73 -8 -117 56 -59 111 -46 138 31 8 25 7
38 -5 62 -30 57 -79 66 -125 24z"/>
<path d="M6313 9325 c-214 -108 -217 -398 -6 -522 95 -56 266 -17 342 77 49
61 65 106 64 185 0 57 -5 81 -27 125 -55 110 -119 152 -240 158 -72 3 -87 1
-133 -23z m215 -107 c46 -31 74 -84 80 -154 7 -88 -46 -157 -137 -174 -72 -13
-117 0 -163 47 -48 51 -58 73 -58 128 0 64 31 120 88 156 40 26 54 30 99 26
34 -2 65 -13 91 -29z"/>
<path d="M6378 9133 c-41 -43 -46 -83 -13 -115 53 -53 115 -45 141 18 25 60
-3 110 -67 120 -28 5 -39 1 -61 -23z"/>
<path d="M2313 8480 c-92 -56 -96 -183 -7 -225 42 -20 104 -19 133 1 27 19 60
88 61 124 0 38 -36 90 -75 106 -46 19 -74 18 -112 -6z m102 -67 c19 -19 16
-83 -5 -108 -14 -17 -53 -20 -80 -5 -38 20 -32 113 8 123 36 10 61 6 77 -10z"/>
<path d="M7737 8471 c-60 -39 -76 -92 -49 -155 58 -129 263 -68 237 72 -4 21
-20 49 -40 69 -27 27 -41 33 -76 33 -26 0 -56 -8 -72 -19z m111 -64 c18 -14
15 -71 -6 -97 -38 -46 -112 -16 -112 45 0 60 69 90 118 52z"/>
<path d="M978 6647 c-105 -24 -209 -118 -244 -222 -25 -71 -15 -205 18 -270
68 -131 212 -201 360 -175 87 16 126 39 195 114 46 50 64 79 78 125 74 246
-152 484 -407 428z m191 -114 c54 -34 93 -88 117 -162 14 -45 15 -61 5 -106
-26 -118 -115 -185 -244 -185 -78 0 -123 19 -174 72 -43 45 -55 80 -55 164 0
83 19 129 80 187 74 72 184 84 271 30z"/>
<path d="M9023 6645 c-145 -39 -219 -116 -258 -265 -49 -189 96 -385 301 -406
159 -17 328 99 365 249 18 74 7 192 -23 252 -27 53 -95 123 -145 148 -29 16
-131 38 -167 36 -12 0 -45 -7 -73 -14z m184 -106 c79 -38 133 -129 133 -224 0
-100 -50 -176 -145 -221 -153 -73 -334 43 -335 213 0 148 97 252 239 253 46 0
77 -6 108 -21z"/>
<path d="M720 5858 c19 -5 42 -15 50 -21 9 -7 5 -2 -8 11 -13 12 -35 22 -50
21 -25 -1 -24 -2 8 -11z"/>
<path d="M9012 4270 c-104 -22 -226 -125 -256 -217 -26 -81 -29 -124 -11 -193
31 -121 117 -218 230 -257 73 -25 188 -23 245 5 175 85 263 287 199 457 -29
78 -112 162 -184 188 -61 21 -165 29 -223 17z m183 -114 c102 -47 157 -154
135 -260 -21 -104 -90 -174 -198 -201 -54 -14 -64 -14 -108 1 -86 28 -143 81
-169 153 -44 128 19 272 136 314 67 23 145 21 204 -7z"/>
<path d="M9248 3859 c-15 -22 -24 -39 -20 -39 16 0 54 48 50 63 -2 9 -13 1
-30 -24z"/>
<path d="M916 4245 c-115 -47 -179 -124 -199 -238 -28 -167 50 -319 201 -390
55 -26 78 -31 141 -31 159 1 279 93 332 257 l26 80 33 -62 c51 -95 119 -141
208 -141 62 1 118 27 164 78 44 49 61 106 56 187 -5 80 -31 129 -87 167 -115
80 -296 27 -357 -106 -23 -49 -26 -49 -38 4 -8 38 -62 115 -103 146 -101 77
-259 98 -377 49z m232 -80 c85 -36 151 -131 152 -218 0 -114 -48 -194 -143
-238 -110 -50 -262 3 -317 111 -63 124 -16 274 108 339 46 25 147 28 200 6z
m567 -75 c67 -42 87 -152 39 -210 -36 -42 -79 -63 -114 -55 -38 8 -97 75 -106
119 -9 50 29 123 76 148 44 23 65 23 105 -2z"/>
<path d="M1240 3906 c-29 -69 -67 -114 -124 -147 -57 -32 -55 -39 2 -10 21 11
53 34 70 52 35 36 89 136 79 146 -4 3 -16 -15 -27 -41z"/>
<path d="M7658 2353 c7 -3 16 -2 19 1 4 3 -2 6 -13 5 -11 0 -14 -3 -6 -6z"/>
<path d="M6917 2109 c7 -7 15 -10 18 -7 3 3 -2 9 -12 12 -14 6 -15 5 -6 -5z"/>
<path d="M2334 2021 c-55 -25 -84 -64 -84 -114 0 -32 7 -46 38 -78 47 -47 83
-57 135 -38 53 18 77 53 79 110 1 56 -23 104 -62 124 -37 19 -56 19 -106 -4z
m67 -48 c28 -17 33 -28 29 -68 -9 -93 -120 -83 -120 10 0 40 20 65 58 74 2 1
17 -7 33 -16z"/>
<path d="M7693 1985 c-32 -32 -35 -40 -31 -79 7 -59 40 -103 88 -117 34 -10
44 -9 84 11 33 15 53 34 66 61 29 56 26 85 -14 125 -31 31 -39 34 -96 34 -58
0 -64 -2 -97 -35z m156 -21 c20 -19 17 -81 -5 -105 -24 -26 -89 -26 -104 0
-23 44 -7 110 30 124 21 8 62 -2 79 -19z"/>
<path d="M2125 1586 c-3 -9 -7 -23 -10 -31 -2 -8 -2 -15 1 -15 7 0 25 52 20
58 -3 3 -8 -3 -11 -12z"/>
<path d="M2120 1521 c0 -10 19 -25 25 -20 1 2 -3 10 -11 17 -8 7 -14 8 -14 3z"/>
<path d="M3679 1439 c-61 -9 -95 -28 -145 -81 -64 -66 -88 -120 -88 -203 -1
-90 22 -141 97 -216 66 -68 106 -83 196 -77 153 11 258 116 269 269 6 89 -17
158 -75 220 -70 75 -151 103 -254 88z m121 -111 c100 -51 138 -190 75 -279
-33 -47 -85 -78 -142 -86 -31 -4 -47 1 -87 29 -70 47 -87 74 -93 150 -6 77 12
126 63 164 62 48 119 54 184 22z"/>
<path d="M3666 1214 c-35 -36 -35 -82 2 -116 46 -43 68 -44 107 -5 27 27 35
43 35 70 0 71 -91 103 -144 51z"/>
<path d="M6387 1439 c-87 -13 -163 -73 -213 -169 -12 -24 -18 -58 -18 -110 -1
-62 4 -84 26 -131 52 -105 153 -179 245 -179 99 0 206 66 258 161 27 48 30 63
30 139 0 69 -5 93 -23 127 -67 128 -169 182 -305 162z m135 -115 c47 -24 98
-121 98 -188 0 -44 -54 -123 -100 -147 -66 -36 -172 -17 -222 38 -26 29 -48
88 -48 130 1 74 64 165 123 178 53 11 64 12 92 7 17 -3 42 -11 57 -18z"/>
<path d="M6381 1224 c-19 -16 -33 -39 -37 -61 -6 -32 -3 -40 25 -65 51 -46
111 -34 137 27 20 49 18 63 -15 96 -36 36 -70 37 -110 3z"/>
</g>
</svg>
